<svg width="25" height="24" viewBox="0 0 25 24" fill="none" xmlns="http://www.w3.org/2000/svg">
<path fill-rule="evenodd" clip-rule="evenodd" d="M21.6303 14.1469C22.7899 12.9268 22.7899 11.0732 21.6303 9.8531C19.6745 7.79533 16.3155 5 12.5 5C8.68448 5 5.32549 7.79533 3.36971 9.8531C2.2101 11.0732 2.2101 12.9268 3.36971 14.1469C5.32549 16.2047 8.68448 19 12.5 19C16.3155 19 19.6745 16.2047 21.6303 14.1469ZM12.5 15C14.1569 15 15.5 13.6569 15.5 12C15.5 10.3431 14.1569 9 12.5 9C10.8431 9 9.5 10.3431 9.5 12C9.5 13.6569 10.8431 15 12.5 15Z" fill="#5458EA"/>
</svg>
