<svg width="30" height="30" viewBox="0 0 30 30" fill="none" xmlns="http://www.w3.org/2000/svg">
<rect width="30" height="30" rx="6" fill="#5458EA"/>
<path fill-rule="evenodd" clip-rule="evenodd" d="M10.2315 5H19.7689C21.5863 5 23.2206 6.24475 23.8955 8.14305L24.6535 10.2749C24.8829 10.9202 25.0415 11.6107 24.8742 12.2749C24.4778 13.8478 23.192 15 21.6669 15C19.8259 15 18.3335 13.3211 18.3335 11.25C18.3335 13.3211 16.8412 15 15.0002 15C13.1593 15 11.6669 13.3211 11.6669 11.25C11.6669 13.3211 10.1745 15 8.33354 15C6.80844 15 5.52257 13.8478 5.12622 12.2749C4.95887 11.6107 5.11747 10.9202 5.34692 10.2749L6.1049 8.14305C6.77985 6.24476 8.41411 5 10.2315 5ZM7.00024 16.3002V20.9997C7.00024 23.2088 8.79111 24.9997 11.0002 24.9997H19.0002C21.2094 24.9997 23.0002 23.2088 23.0002 20.9997V16.3003C22.5814 16.4295 22.1351 16.4997 21.667 16.4997C20.3299 16.4997 19.1775 15.937 18.3337 15.0557C17.4898 15.937 16.3374 16.4997 15.0003 16.4997C13.6632 16.4997 12.5108 15.937 11.667 15.0557C10.8232 15.937 9.67077 16.4997 8.33365 16.4997C7.86552 16.4997 7.41911 16.4295 7.00024 16.3002ZM18.6534 19.6312C18.8569 19.992 18.7293 20.4495 18.3685 20.6529C17.1533 21.338 16.1066 21.7474 15.003 21.7496C13.8979 21.7517 12.8492 21.3455 11.6293 20.6515C11.2692 20.4466 11.1434 19.9887 11.3482 19.6287C11.553 19.2687 12.0109 19.1429 12.371 19.3477C13.5072 19.994 14.2822 20.2509 15.0001 20.2496C15.7193 20.2482 16.4945 19.9874 17.6318 19.3462C17.9926 19.1428 18.45 19.2704 18.6534 19.6312Z" fill="white"/>
</svg>
