<svg width="131" height="130" viewBox="0 0 131 130" fill="none" xmlns="http://www.w3.org/2000/svg">
<path fill-rule="evenodd" clip-rule="evenodd" d="M51.4505 15.6571C53.4597 12.6433 56.8422 10.833 60.4643 10.833H70.5353C74.1575 10.833 77.54 12.6433 79.5492 15.6571L84.4582 23.0205H104.771C107.014 23.0205 108.833 24.8393 108.833 27.083C108.833 29.3267 107.014 31.1455 104.771 31.1455H26.229C23.9853 31.1455 22.1665 29.3267 22.1665 27.083C22.1665 24.8393 23.9853 23.0205 26.229 23.0205H46.5415L51.4505 15.6571ZM81.7498 119.166H49.2498C37.2837 119.166 27.5832 109.466 27.5832 97.4997V37.9163H103.417V97.4997C103.417 109.466 93.716 119.166 81.7498 119.166ZM54.6665 55.5205C56.9102 55.5205 58.729 57.3394 58.729 59.583V97.4997C58.729 99.7433 56.9102 101.562 54.6665 101.562C52.4229 101.562 50.604 99.7433 50.604 97.4997L50.604 59.583C50.604 57.3394 52.4228 55.5205 54.6665 55.5205ZM76.3332 55.5205C78.5768 55.5205 80.3957 57.3394 80.3957 59.583V97.4997C80.3957 99.7433 78.5768 101.562 76.3332 101.562C74.0895 101.562 72.2707 99.7433 72.2707 97.4997V59.583C72.2707 57.3394 74.0895 55.5205 76.3332 55.5205Z" fill="url(#paint0_linear_236_18075)"/>
<defs>
<linearGradient id="paint0_linear_236_18075" x1="65.4998" y1="10.833" x2="65.4998" y2="119.166" gradientUnits="userSpaceOnUse">
<stop stop-color="#F34545"/>
<stop offset="1" stop-color="#FFBABA"/>
</linearGradient>
</defs>
</svg>
