<svg width="131" height="130" viewBox="0 0 131 130" fill="none" xmlns="http://www.w3.org/2000/svg">
<path d="M119.667 47.1793C119.667 54.871 116.688 62.0751 111.271 67.4918L68.7506 110.013C68.534 110.229 67.9382 110.717 67.6673 110.879C67.0173 111.313 66.259 111.529 65.5007 111.529C64.7423 111.529 63.9298 111.313 63.2798 110.879C62.9548 110.663 62.684 110.446 62.359 110.121L19.784 67.4918C14.3131 62.0751 11.334 54.871 11.334 47.1793C11.334 39.4876 14.3131 32.2835 19.784 26.8668C30.9965 15.7085 49.1965 15.7085 60.409 26.8668L65.5007 32.0126L70.6465 26.8668C81.859 15.7085 100.059 15.7085 111.217 26.8668C116.688 32.2835 119.667 39.4876 119.667 47.1793Z" fill="url(#paint0_linear_749_17436)"/>
<defs>
<linearGradient id="paint0_linear_749_17436" x1="65.5007" y1="18.498" x2="65.5007" y2="111.529" gradientUnits="userSpaceOnUse">
<stop stop-color="#F34545"/>
<stop offset="1" stop-color="#FFADAD"/>
</linearGradient>
</defs>
</svg>
