<svg width="97" height="113" viewBox="0 0 97 113" fill="none" xmlns="http://www.w3.org/2000/svg">
<g opacity="0.6" filter="url(#filter0_f_196_15979)">
<rect x="16.5" y="16.5" width="64" height="80" rx="20" fill="#5458EA"/>
<rect x="17.5" y="17.5" width="62" height="78" rx="19" stroke="url(#paint0_linear_196_15979)" stroke-width="2"/>
</g>
<rect x="7.5" y="9.5" width="80" height="80" rx="20" fill="#5458EA"/>
<g opacity="0.5">
<path fill-rule="evenodd" clip-rule="evenodd" d="M47.5 47.5C51.9183 47.5 55.5 43.9183 55.5 39.5C55.5 35.0817 51.9183 31.5 47.5 31.5C43.0817 31.5 39.5 35.0817 39.5 39.5C39.5 43.9183 43.0817 47.5 47.5 47.5ZM47.5 67.5C55.232 67.5 61.5 63.9183 61.5 59.5C61.5 55.0817 55.232 51.5 47.5 51.5C39.768 51.5 33.5 55.0817 33.5 59.5C33.5 63.9183 39.768 67.5 47.5 67.5Z" fill="white"/>
</g>
<defs>
<filter id="filter0_f_196_15979" x="0.5" y="0.5" width="96" height="112" filterUnits="userSpaceOnUse" color-interpolation-filters="sRGB">
<feFlood flood-opacity="0" result="BackgroundImageFix"/>
<feBlend mode="normal" in="SourceGraphic" in2="BackgroundImageFix" result="shape"/>
<feGaussianBlur stdDeviation="8" result="effect1_foregroundBlur_196_15979"/>
</filter>
<linearGradient id="paint0_linear_196_15979" x1="16.5" y1="16.5" x2="95.1441" y2="76.3274" gradientUnits="userSpaceOnUse">
<stop stop-color="white" stop-opacity="0.7"/>
<stop offset="1" stop-color="white" stop-opacity="0"/>
</linearGradient>
</defs>
</svg>
