<svg width="24" height="25" viewBox="0 0 24 25" fill="none" xmlns="http://www.w3.org/2000/svg">
<path fill-rule="evenodd" clip-rule="evenodd" d="M9.40627 3.3906C9.7772 2.8342 10.4017 2.5 11.0704 2.5H12.9296C13.5983 2.5 14.2228 2.8342 14.5937 3.3906L15.5 4.75H19.25C19.6642 4.75 20 5.08579 20 5.5C20 5.91421 19.6642 6.25 19.25 6.25H4.75C4.33579 6.25 4 5.91421 4 5.5C4 5.08579 4.33579 4.75 4.75 4.75H8.5L9.40627 3.3906ZM15 22.5H9C6.79086 22.5 5 20.7091 5 18.5V7.5H19V18.5C19 20.7091 17.2091 22.5 15 22.5ZM10 10.75C10.4142 10.75 10.75 11.0858 10.75 11.5V18.5C10.75 18.9142 10.4142 19.25 10 19.25C9.58579 19.25 9.25 18.9142 9.25 18.5L9.25 11.5C9.25 11.0858 9.58579 10.75 10 10.75ZM14 10.75C14.4142 10.75 14.75 11.0858 14.75 11.5V18.5C14.75 18.9142 14.4142 19.25 14 19.25C13.5858 19.25 13.25 18.9142 13.25 18.5V11.5C13.25 11.0858 13.5858 10.75 14 10.75Z" fill="#F34545"/>
</svg>
